<svg width="4052" height="690" viewBox="0 0 4052 690" fill="none" xmlns="http://www.w3.org/2000/svg">
<path d="M874.849 31.0005L739.042 161.875V31.5295L496.288 149.142C464.367 167.58 425.042 167.542 393.196 149.029L224.296 50.9113C178.851 24.5022 122.752 24.3509 77.1557 50.5333C31.5592 76.7157 3.37776 125.227 3.22665 177.818L3 262.788V654.995L138.958 524.121V654.995L381.032 538.969C413.255 519.285 453.639 518.831 486.315 537.797L653.742 635.084C699.187 661.493 755.286 661.644 800.882 635.5C846.479 609.317 874.66 560.806 874.773 508.253L875 423.283L874.849 31.0005ZM728.464 451.052C728.464 474.967 703.003 490.231 681.923 478.934L562.511 415.084C479.364 370.616 379.181 372.127 297.394 419.051L196.983 476.668C175.904 488.757 149.611 473.532 149.611 449.238V236.757C149.611 212.388 176.017 197.162 197.097 209.366L296.487 266.944C378.727 314.586 479.856 316.097 563.493 270.949L681.81 207.061C702.889 195.689 728.464 210.952 728.464 234.906V451.052Z" fill="white"/>
<path d="M1007.97 611V72L1216.64 71.23C1265.41 71.23 1310.07 81.4967 1350.62 102.03C1391.17 122.05 1424.28 152.85 1449.95 194.43C1475.62 236.01 1488.45 284.777 1488.45 340.73C1488.45 382.823 1481.01 421.323 1466.12 456.23C1451.23 490.623 1431.21 519.113 1406.06 541.7C1381.42 563.773 1352.67 580.97 1319.82 593.29C1287.48 605.097 1253.09 611 1216.64 611H1007.97ZM1121.16 500.12H1212.02C1259.76 500.12 1298.77 486.773 1329.06 460.08C1359.86 432.873 1375.26 393.09 1375.26 340.73C1375.26 288.37 1359.86 248.843 1329.06 222.15C1298.77 195.457 1259.76 182.11 1212.02 182.11L1121.16 182.88V500.12Z" fill="white"/>
<path d="M1549.91 611V229.85H1655.4V611H1549.91Z" fill="white"/>
<path d="M1883.59 624.86C1843.04 624.86 1806.59 615.363 1774.25 596.37C1742.43 576.863 1720.61 550.683 1708.8 517.83L1801.97 488.57C1816.86 521.937 1844.58 538.62 1885.13 538.62C1905.67 538.62 1921.84 534.77 1933.64 527.07C1945.45 518.857 1951.35 507.563 1951.35 493.19C1951.35 482.41 1945.96 474.453 1935.18 469.32C1924.4 463.673 1911.57 460.593 1896.68 460.08C1882.31 459.567 1864.34 458.027 1842.78 455.46C1821.74 452.38 1803.77 447.76 1788.88 441.6C1745.25 422.093 1723.43 389.753 1723.43 344.58C1723.43 309.16 1738.58 279.387 1768.86 255.26C1799.15 231.133 1836.11 219.07 1879.74 219.07C1920.81 219.07 1954.95 228.567 1982.15 247.56C2009.87 266.553 2028.1 291.963 2036.82 323.79L1945.19 349.2C1941.6 334.313 1934.16 322.507 1922.86 313.78C1911.57 304.54 1897.45 299.92 1880.51 299.92C1863.57 299.92 1849.46 304.027 1838.16 312.24C1827.38 320.453 1821.99 330.463 1821.99 342.27C1821.99 357.157 1830.72 367.423 1848.17 373.07C1865.63 378.203 1889.24 382.31 1919.01 385.39C1948.79 387.957 1971.63 392.577 1987.54 399.25C2033.23 418.243 2056.07 450.07 2056.07 494.73C2056.07 533.743 2039.9 565.313 2007.56 589.44C1975.22 613.053 1933.9 624.86 1883.59 624.86Z" fill="white"/>
<path d="M2292.62 621.78C2236.16 621.78 2187.65 602.273 2147.09 563.26C2107.05 523.733 2087.03 475.993 2087.03 420.04C2087.03 364.087 2107.05 316.347 2147.09 276.82C2187.65 236.78 2236.16 216.76 2292.62 216.76C2325.48 216.76 2356.53 224.203 2385.79 239.09C2415.05 253.977 2439.18 274.253 2458.17 299.92L2370.39 363.83C2351.91 335.597 2325.99 320.967 2292.62 319.94C2263.36 319.427 2239.24 328.923 2220.24 348.43C2201.76 367.423 2192.52 391.55 2192.52 420.81C2192.52 449.557 2201.76 473.427 2220.24 492.42C2239.24 510.9 2263.36 520.397 2292.62 520.91C2309.05 521.423 2324.19 517.573 2338.05 509.36C2351.91 501.147 2362.95 490.11 2371.16 476.25L2457.4 539.39C2438.41 565.057 2414.54 585.333 2385.79 600.22C2357.05 614.593 2325.99 621.78 2292.62 621.78Z" fill="white"/>
<path d="M2638.12 612.54C2597.05 612.54 2564.46 600.733 2540.33 577.12C2516.72 553.507 2504.91 520.653 2504.91 478.56V33.5H2612.71V458.54C2612.71 477.02 2617.84 490.88 2628.11 500.12C2638.38 508.847 2651.21 513.21 2666.61 513.21C2674.82 513.21 2682.01 512.183 2688.17 510.13L2698.95 604.07C2676.36 609.717 2656.09 612.54 2638.12 612.54Z" fill="white"/>
<path d="M3075.24 563.26C3035.2 602.273 2986.95 621.78 2930.48 621.78C2874.01 621.78 2825.5 602.273 2784.95 563.26C2744.91 523.733 2724.89 475.993 2724.89 420.04C2724.89 364.087 2744.91 316.347 2784.95 276.82C2825.5 236.78 2874.01 216.76 2930.48 216.76C2986.95 216.76 3035.2 236.78 3075.24 276.82C3115.79 316.347 3136.07 364.087 3136.07 420.04C3136.07 475.993 3115.79 523.733 3075.24 563.26ZM2930.48 520.91C2956.66 521.423 2978.73 512.183 2996.7 493.19C3015.18 473.683 3024.42 449.557 3024.42 420.81C3024.42 391.55 3015.18 367.423 2996.7 348.43C2978.73 328.923 2956.66 319.427 2930.48 319.94C2904.3 319.427 2881.97 328.923 2863.49 348.43C2845.52 367.423 2836.54 391.55 2836.54 420.81C2836.54 449.557 2845.52 473.683 2863.49 493.19C2881.97 512.183 2904.3 521.423 2930.48 520.91Z" fill="white"/>
<path d="M3357.6 615.62C3307.81 615.62 3267.77 599.193 3237.48 566.34C3207.71 533.487 3192.82 487.287 3192.82 427.74V229.85H3300.62V416.19C3300.62 450.583 3308.06 477.02 3322.95 495.5C3338.35 513.98 3358.63 523.22 3383.78 523.22C3410.99 523.22 3432.29 513.723 3447.69 494.73C3463.09 475.737 3470.79 448.787 3470.79 413.88V229.85H3578.59V611H3472.33V564.8H3470.79C3443.07 598.68 3405.34 615.62 3357.6 615.62Z" fill="white"/>
<path d="M3814.02 617.93C3763.2 617.93 3720.85 598.937 3686.97 560.95C3653.09 522.963 3636.15 475.993 3636.15 420.04C3636.15 364.087 3653.09 317.373 3686.97 279.9C3720.85 241.913 3763.2 222.92 3814.02 222.92C3867.41 222.92 3909.24 241.4 3939.53 278.36V33.5H4047.33V611H3939.53V562.49C3909.24 599.45 3867.41 617.93 3814.02 617.93ZM3771.67 493.96C3790.15 513.467 3813.25 523.22 3840.97 523.22C3868.69 523.22 3892.05 513.467 3911.04 493.96C3930.03 473.94 3939.53 449.3 3939.53 420.04C3939.53 390.78 3930.03 366.397 3911.04 346.89C3892.05 326.87 3868.69 316.86 3840.97 316.86C3813.25 316.86 3790.15 326.613 3771.67 346.12C3753.19 365.627 3743.95 390.267 3743.95 420.04C3743.95 449.813 3753.19 474.453 3771.67 493.96Z" fill="white"/>
</svg>
